<?xml version="1.0" standalone="no"?><!DOCTYPE svg PUBLIC "-//W3C//DTD SVG 1.1//EN" "http://www.w3.org/Graphics/SVG/1.1/DTD/svg11.dtd"><svg t="1577795628223" class="icon" viewBox="0 0 1024 1024" version="1.1" xmlns="http://www.w3.org/2000/svg" p-id="825" xmlns:xlink="http://www.w3.org/1999/xlink" width="200" height="200"><defs><style type="text/css"></style></defs><path d="M819.2 527.36l76.8-76.288a40.448 40.448 0 0 0 10.24-46.592L840.192 256a38.4 38.4 0 0 0-40.96-25.088l-112.64 15.872-35.84-113.152a41.472 41.472 0 0 0-40.96-30.72h-209.92a41.472 41.472 0 0 0-40.96 30.72l-30.72 113.152-112.64-16.384a40.96 40.96 0 0 0-46.08 25.088L108.032 404.48a39.424 39.424 0 0 0 5.12 46.592l76.8 76.288-76.8 76.288a46.592 46.592 0 0 0-5.12 51.2l87.04 148.992a37.376 37.376 0 0 0 40.96 20.992l92.16-14.848L358.4 921.6a41.472 41.472 0 0 0 40.96 30.72h209.92a41.472 41.472 0 0 0 40.96-30.72l35.84-112.128 87.04 14.848a44.544 44.544 0 0 0 46.08-20.992l81.92-148.992a38.912 38.912 0 0 0-5.12-51.2z m-312.32 169.984a166.912 166.912 0 0 1-168.96-169.984A166.912 166.912 0 0 1 507.392 358.4a169.984 169.984 0 0 1 0 339.968z m0-256a84.992 84.992 0 1 0 0 169.984 84.992 84.992 0 0 0 0-169.984z" p-id="826"></path></svg>